<svg xmlns="http://www.w3.org/2000/svg" xmlns:xlink="http://www.w3.org/1999/xlink" viewBox="0,0,256,256" width="16px" height="16px" fill-rule="evenodd"><g fill="#f0f0f0" fill-rule="evenodd" stroke="none" stroke-width="1" stroke-linecap="butt" stroke-linejoin="miter" stroke-miterlimit="10" stroke-dasharray="" stroke-dashoffset="0" font-family="none" font-weight="none" font-size="none" text-anchor="none" style="mix-blend-mode: normal"><g transform="scale(4,4)"><path d="M31,9.5c12.131,0 22,9.869 22,22c0,11.113 -8.284,20.322 -19,21.79v-15.29h4l2,-5.029l-6,0.029v-4.73c0,-1.254 1.016,-2.27 2.27,-2.27c0.902,0 1.73,0 1.73,0v-4h-4.255c-1.524,0 -2.985,0.605 -4.062,1.683c-1.078,1.077 -1.683,2.538 -1.683,4.062c0,2.653 0,5.226 0,5.226h-4v5.029h4v15.29c-10.716,-1.468 -19,-10.677 -19,-21.79c0,-12.131 9.869,-22 22,-22z"></path></g></g></svg>