<?xml version="1.0" encoding="UTF-8" standalone="no"?>
<!-- Created with Inkscape (http://www.inkscape.org/) -->

<svg
   width="24px"
   height="24px"
   viewBox="0 0 6.3499999 6.3500004"
   version="1.1"
   id="svg1"
   xml:space="preserve"
   xmlns:inkscape="http://www.inkscape.org/namespaces/inkscape"
   xmlns:sodipodi="http://sodipodi.sourceforge.net/DTD/sodipodi-0.dtd"
   xmlns="http://www.w3.org/2000/svg"
   xmlns:svg="http://www.w3.org/2000/svg"><sodipodi:namedview
     id="namedview1"
     pagecolor="#ffffff"
     bordercolor="#000000"
     borderopacity="0.25"
     inkscape:showpageshadow="2"
     inkscape:pageopacity="0.0"
     inkscape:pagecheckerboard="0"
     inkscape:deskcolor="#d1d1d1"
     inkscape:document-units="mm" /><defs
     id="defs1" /><g
     inkscape:label="Camada 1"
     inkscape:groupmode="layer"
     id="layer1"
     transform="translate(-61.223501,-53.728117)"><g
       id="g4"
       inkscape:export-filename="navegar.svg"
       inkscape:export-xdpi="62.98098"
       inkscape:export-ydpi="62.98098"><rect
         style="fill:#fff;fill-opacity:1;stroke-width:0.105833"
         id="rect3"
         width="10.456958"
         height="9.6791115"
         x="60.062588"
         y="42.135136"
         rx="0"
         ry="0" /><g
         id="g3"
         transform="translate(-2.0477257,-2.4934231)"
         style="fill:#b3b3b3;fill-opacity:1"><g
           id="g5"
           inkscape:export-filename="navegar.svg"
           inkscape:export-xdpi="62.98098"
           inkscape:export-ydpi="62.98098"
           transform="matrix(0.83124396,0,0,0.84323788,10.677401,8.8134076)"><path
             id="rect1"
             style="fill:#b3b3b3;fill-opacity:1;stroke-width:0.105833"
             d="m 63.872193,58.841184 c -0.129593,0.0081 -0.64533,0.09897 -0.597897,0.524516 0.131918,1.1835 0.400648,2.349483 0.600997,3.524333 0.06123,0.359024 0.257858,0.786033 0.768946,0.793233 l 4.903576,0.06873 c 0.319104,0.0045 0.515404,-0.379744 0.583944,-0.691431 l 0.753442,-3.426148 c 0.06854,-0.311687 0.05167,-0.744508 -0.774629,-0.749308 l -5.972762,-0.03462 -0.236678,-0.0088 c 0,-0.0015 -0.01043,-0.0017 -0.02894,-5.17e-4 z m 3.130041,1.545642 a 0.99696225,0.97256261 0 0 1 0.997355,0.972551 0.99696225,0.97256261 0 0 1 -0.997355,0.97255 0.99696225,0.97256261 0 0 1 -0.996838,-0.97255 0.99696225,0.97256261 0 0 1 0.996838,-0.972551 z" /><rect
             style="fill:#b3b3b3;fill-opacity:1;stroke-width:0.103604"
             id="rect2"
             width="5.861361"
             height="2.0733583"
             x="64.157188"
             y="56.221539"
             ry="0.43477812"
             rx="0.26465112" /></g></g></g></g></svg>
